<svg width="18" height="13" viewBox="0 0 18 13" fill="none" xmlns="http://www.w3.org/2000/svg">
<path d="M14.574 10.1376C14.5026 10.1376 14.4312 10.1117 14.3755 10.0595L11.0358 6.96154C10.9191 6.85364 10.9133 6.67171 11.023 6.55636C11.1327 6.43985 11.3155 6.43469 11.4333 6.54373L14.7731 9.6417C14.8898 9.7496 14.8956 9.93153 14.7859 10.0469C14.7284 10.1071 14.6518 10.1376 14.574 10.1376Z" fill="#956D84"/>
<path d="M3.42576 10.1379C3.34856 10.1379 3.27136 10.1075 3.2139 10.0473C3.1042 9.93192 3.11 9.75 3.22667 9.64211L6.56763 6.54429C6.68488 6.4364 6.86887 6.441 6.97799 6.55692C7.0877 6.67227 7.08189 6.85419 6.96522 6.96208L3.62426 10.0599C3.56854 10.1121 3.49715 10.1379 3.42576 10.1379Z" fill="#956D84"/>
<path d="M16.5489 13H1.45105C0.651232 13 0 12.3567 0 11.5653V1.78233C0 0.99095 0.651232 0 1.45105 0H16.5489C17.3488 0 18 0.99095 18 1.78233V11.5653C18 12.3567 17.3488 13 16.5489 13ZM1.45105 1.11235C0.971043 1.11235 1.125 1.30773 1.125 1.78233V11.6794C1.125 12.154 0.971043 11.8492 1.45105 11.8492H16.5489C17.029 11.8492 16.875 12.0399 16.875 11.5653V1.66849C16.875 1.19389 17.029 1.11235 16.5489 1.11235H1.45105Z" fill="#956D84"/>
<path d="M9.00017 8.13456C8.61419 8.13456 8.22821 8.00772 7.93452 7.75463L0.481918 1.32618C0.36119 1.2223 0.348421 1.04094 0.453477 0.920994C0.559694 0.801619 1.00441 0.471759 1.12514 0.57449L8.43764 6.69267C8.80853 7.01234 9.19233 7.01234 9.56264 6.69267L16.8751 0.574472C16.6231 0.245186 17.4302 0.811375 17.537 0.931324C17.6421 1.05127 17.6299 1.23206 17.5091 1.33651L10.0658 7.75405C9.77155 8.00772 9.38615 8.13456 9.00017 8.13456Z" fill="#956D84"/>
</svg>
