<svg width="33" height="33" viewBox="0 0 33 33" fill="none" xmlns="http://www.w3.org/2000/svg">
<path d="M10.6322 22.3342H10.6338C10.635 22.3342 10.6363 22.334 10.6375 22.334H28.166C28.5975 22.334 28.977 22.0477 29.0956 21.6328L32.9627 8.09765C33.0461 7.80585 32.9877 7.49214 32.8051 7.24994C32.6223 7.00774 32.3366 6.86523 32.0332 6.86523H8.40257L7.71146 3.75512C7.61302 3.31276 7.22076 2.99805 6.76758 2.99805H0.966797C0.432793 2.99805 0 3.43084 0 3.96484C0 4.49885 0.432793 4.93164 0.966797 4.93164H5.99213C6.11449 5.48277 9.29938 19.815 9.48267 20.6396C8.45519 21.0862 7.73438 22.1107 7.73438 23.3008C7.73438 24.9 9.03552 26.2012 10.6348 26.2012H28.166C28.7 26.2012 29.1328 25.7684 29.1328 25.2344C29.1328 24.7004 28.7 24.2676 28.166 24.2676H10.6348C10.1018 24.2676 9.66797 23.8338 9.66797 23.3008C9.66797 22.7685 10.1003 22.3355 10.6322 22.3342ZM30.7514 8.79883L27.4366 20.4004H11.4102L8.83209 8.79883H30.7514Z" fill="#956D84"/>
<path d="M9.66797 29.1016C9.66797 30.7008 10.9691 32.002 12.5684 32.002C14.1676 32.002 15.4688 30.7008 15.4688 29.1016C15.4688 27.5023 14.1676 26.2012 12.5684 26.2012C10.9691 26.2012 9.66797 27.5023 9.66797 29.1016ZM12.5684 28.1348C13.1014 28.1348 13.5352 28.5686 13.5352 29.1016C13.5352 29.6346 13.1014 30.0684 12.5684 30.0684C12.0354 30.0684 11.6016 29.6346 11.6016 29.1016C11.6016 28.5686 12.0354 28.1348 12.5684 28.1348Z" fill="#956D84"/>
<path d="M23.332 29.1016C23.332 30.7008 24.6332 32.002 26.2324 32.002C27.8317 32.002 29.1328 30.7008 29.1328 29.1016C29.1328 27.5023 27.8317 26.2012 26.2324 26.2012C24.6332 26.2012 23.332 27.5023 23.332 29.1016ZM26.2324 28.1348C26.7654 28.1348 27.1992 28.5686 27.1992 29.1016C27.1992 29.6346 26.7654 30.0684 26.2324 30.0684C25.6994 30.0684 25.2656 29.6346 25.2656 29.1016C25.2656 28.5686 25.6994 28.1348 26.2324 28.1348Z" fill="#956D84"/>
<path d="M28.808 7.12H29.92V3.96L30.04 3.416L29.656 3.888L28.944 4.376L28.504 3.776L30.328 2.304H30.912V7.12H32V8H28.808V7.12Z" fill="white"/>
</svg>
