<svg width="15" height="15" viewBox="0 0 15 15" fill="none" xmlns="http://www.w3.org/2000/svg">
<path d="M14.193 1.12946e-06H0.819751C0.583883 -0.000445029 0.367646 0.13132 0.259825 0.341162C0.150516 0.55383 0.169701 0.809924 0.309348 1.00415L5.20874 7.9059C5.21038 7.90828 5.21216 7.91051 5.2138 7.91289C5.39182 8.15322 5.48804 8.44426 5.48863 8.74348V14.3704C5.48759 14.5371 5.55303 14.6971 5.67052 14.8154C5.788 14.9336 5.94773 14.9999 6.11429 14.9999C6.19906 14.9999 6.28279 14.983 6.36102 14.9506L9.1141 13.9008C9.36083 13.8255 9.52456 13.5928 9.52456 13.3124V8.74348C9.52501 8.44441 9.62138 8.15322 9.79925 7.91289C9.80088 7.91051 9.80267 7.90828 9.80431 7.9059L14.7036 1.00385C14.8432 0.809775 14.8624 0.55383 14.7531 0.341162C14.6453 0.13132 14.429 -0.000445029 14.193 1.12946e-06ZM9.18534 7.46182C8.91169 7.83317 8.76372 8.28215 8.76283 8.74348V13.2199L6.25007 14.178V8.74348C6.24918 8.28215 6.1012 7.83317 5.82741 7.46182L1.07094 0.761442H13.942L9.18534 7.46182Z" fill="white"/>
</svg>
