<svg width="100" height="100" viewBox="0 0 100 100" fill="none" xmlns="http://www.w3.org/2000/svg">
<path d="M99.3389 34.0241C98.7994 33.2876 98.0053 32.8051 97.1031 32.6659L68.0525 28.1796V3.41796C68.0525 1.53339 66.5191 0 64.6345 0H3.41796C1.53339 0 0 1.53339 0 3.41796V64.6732C0 66.5577 1.53339 68.0911 3.41796 68.0911H26.2315L23.3554 86.7166C23.0706 88.5596 24.3685 90.3321 26.2116 90.6164L86.7108 99.9596C88.5123 100.238 90.3299 98.9182 90.6102 97.1031L92.1746 86.9729C92.4637 85.1012 89.5682 84.6536 89.2793 86.5258C89.0823 87.8014 88.1721 97.2166 87.1579 97.0643L26.6587 87.7211C26.3688 87.6481 26.2327 87.4623 26.2507 87.1639L29.196 68.0913H32.4739L30.0913 83.519C29.9678 84.3186 30.5159 85.0668 31.3155 85.1903L83.4813 93.2465C84.2176 93.3598 85.0368 92.7717 85.1526 92.0223L93.2231 39.7635C93.3465 38.9639 92.7985 38.2157 91.9989 38.0922L68.0523 34.394V31.144L96.6559 35.5614C96.9457 35.6344 97.0816 35.8202 97.0639 36.1186L90.42 79.1393C90.1389 80.9591 93.0215 81.4889 93.3153 79.5864L99.9592 36.5657C100.099 35.6633 99.8781 34.7608 99.3389 34.0241ZM2.92968 64.6732V3.41796C2.92968 3.14862 3.14882 2.92968 3.41796 2.92968H64.6343C64.9035 2.92968 65.1226 3.14862 65.1226 3.41796V64.6732C65.1226 64.9425 64.9035 65.1615 64.6343 65.1615H3.41796C3.14882 65.1615 2.92968 64.9425 2.92968 64.6732ZM90.1041 40.7639L82.4807 90.1274L33.2102 82.5182L35.4383 68.0911H64.6343C66.5189 68.0911 68.0523 66.5577 68.0523 64.6732V37.3582L90.1041 40.7639Z" fill="white"/>
<path d="M60.4184 6.14355H7.63403C6.82505 6.14355 6.16919 6.79922 6.16919 7.60839V14.9306C6.16919 16.8246 9.09886 16.8246 9.09886 14.9306V9.07323H58.9534V59.0219H9.09886V22.7212C9.09886 20.8273 6.16919 20.8273 6.16919 22.7212V60.4867C6.16919 61.2959 6.82505 61.9515 7.63403 61.9515H60.4182C61.2272 61.9515 61.883 61.2959 61.883 60.4867V7.60839C61.8832 6.79922 61.2274 6.14355 60.4184 6.14355Z" fill="white"/>
<path d="M34.0258 48.6197C34.217 48.6197 34.4082 48.5824 34.5881 48.5074C34.7525 48.439 38.6592 46.798 42.6314 43.6974C48.0467 39.4705 50.9453 34.5441 51.0141 29.4507C51.0859 24.123 47.0271 18.9333 41.4434 18.9333C38.5217 18.9333 35.8152 20.3878 34.0256 22.7927C32.2361 20.3878 29.5297 18.9333 26.6078 18.9333C21.3305 18.9333 17.0371 23.6423 17.0371 29.4308C17.0371 41.6943 32.8033 48.2394 33.4744 48.5119C33.6514 48.5839 33.8387 48.6197 34.0258 48.6197ZM19.967 29.4308C19.967 25.258 22.9461 21.863 26.608 21.863C29.2123 21.863 31.5895 23.6142 32.6641 26.3244C33.1434 27.533 34.9082 27.533 35.3875 26.3244C36.4619 23.6142 38.8391 21.863 41.4434 21.863C45.4066 21.863 48.135 25.6871 48.0846 29.4111C47.9623 38.4783 36.6766 44.3048 34.0182 45.5517C31.341 44.3255 19.967 38.5761 19.967 29.4308Z" fill="white"/>
</svg>
